<svg xmlns="http://www.w3.org/2000/svg" viewBox="0 0 64 64"><rect width="64" height="64" rx="14" fill="#0f1b2d"/><path d="M6 52 Q22 40 34 34" fill="none" stroke="#ffffff" stroke-opacity=".55" stroke-width="3" stroke-linecap="round"/><g transform="translate(30 10) rotate(45 12 12) scale(1.35)"><path fill="#ffd23f" d="M12 1.5c.8 0 1.4 1.1 1.4 2.6v4.6l7.8 4.5c.3.2.5.5.5.9v1.2l-8.3-2.5v4.6l2.3 1.7v1.4L12 19.6l-3.7.9v-1.4l2.3-1.7v-4.6l-8.3 2.5v-1.2c0-.4.2-.7.5-.9l7.8-4.5V4.1c0-1.5.6-2.6 1.4-2.6Z"/></g></svg>
